<svg xmlns="http://www.w3.org/2000/svg" viewBox="0 0 312.5 312.5">
    <g transform="matrix(3.000,0,0,3.000,6.25,6.25)" fill="#111">
        <circle xmlns="http://www.w3.org/2000/svg" cx="50" cy="50" r="50"></circle>
    </g>
    <g transform="matrix(1.9554165270530217,0,0,1.9554165270530217,50.91591814856046,105.95971772135016)" fill="#fff">
        <path d="M14.44 19.2 c5.6 0 9.96 4.52 9.96 10.68 c0 6.12 -4.36 10.68 -9.96 10.68 c-2.88 0 -5.08 -1.2 -6.56 -3.04 l0 2.48 l-5.28 0 l0 -29.2 l5.28 0 l0 11.4 c1.48 -1.84 3.68 -3 6.56 -3 z M13.52 35.84 c3.32 0 5.68 -2.48 5.68 -6 c0 -3.48 -2.36 -5.92 -5.68 -5.92 c-3.2 0 -5.76 2.44 -5.76 5.92 c0 3.52 2.56 6 5.76 6 z M37.16 40.56 c-5.6 0 -10 -4.56 -10 -10.68 c0 -6.16 4.4 -10.68 10 -10.68 c2.84 0 5.08 1.16 6.52 3 l0 -2.44 l5.32 0 l0 20.24 l-5.32 0 l0 -2.48 c-1.44 1.84 -3.68 3.04 -6.52 3.04 z M38.08 35.84 c3.2 0 5.76 -2.48 5.76 -6 c0 -3.48 -2.56 -5.92 -5.76 -5.92 c-3.32 0 -5.68 2.44 -5.68 5.92 c0 3.52 2.36 6 5.68 6 z M62.160000000000004 40.56 c-5 0 -8.84 -2.96 -9.84 -6.24 l4.76 -1.4 c0.68 1.92 2.6 3.36 5.28 3.36 c2.04 0 3.36 -0.96 3.36 -2.08 c0 -1 -0.76 -1.56 -2.24 -2 l-5.16 -1.52 c-2.88 -0.84 -5 -2.52 -5 -5.4 c0 -3.4 3.68 -6.08 8.12 -6.08 c4.36 0 7.68 2.08 8.96 5.12 l-4.68 1.36 c-0.72 -1.28 -2.2 -2.36 -4.32 -2.36 c-1.64 0 -2.88 0.88 -2.88 1.84 c0 0.8 0.56 1.28 1.68 1.6 l5.04 1.44 c3.04 0.88 5.68 2.12 5.68 5.76 c0 3.8 -3.6 6.6 -8.76 6.6 z M77.64 16.92 c-1.76 0 -3.16 -1.36 -3.16 -3.12 c0 -1.68 1.4 -3.04 3.16 -3.04 s3.16 1.36 3.16 3.04 c0 1.76 -1.4 3.12 -3.16 3.12 z M74.92 40 l0 -20.24 l5.32 0 l0 20.24 l-5.32 0 z M95.04 40.56 c-6.2 0 -10.76 -4.64 -10.76 -10.72 c0 -6.04 4.56 -10.64 10.72 -10.64 c5.6 0 9.08 3.6 9.88 6.64 l-4.92 1.4 c-0.44 -1.68 -2.32 -3.36 -4.96 -3.36 c-3.36 0 -5.52 2.76 -5.52 5.96 c0 3.16 2.16 6 5.52 6 c2.64 0 4.52 -1.56 4.96 -3.24 l4.92 1.36 c-0.8 3.08 -4.28 6.6 -9.84 6.6 z"></path>
    </g>
</svg>
